<mxfile host="app.diagrams.net" modified="2024-01-06T16:27:59.156Z" agent="Mozilla/5.0 (Windows NT 10.0; Win64; x64) AppleWebKit/537.36 (KHTML, like Gecko) Chrome/120.0.0.0 Safari/537.36" etag="LkS2PFkPHIylUnALX3L8" version="22.1.17" type="device">
  <diagram name="Page-1" id="5f0bae14-7c28-e335-631c-24af17079c00">
    <mxGraphModel dx="1434" dy="784" grid="1" gridSize="10" guides="1" tooltips="1" connect="1" arrows="1" fold="1" page="1" pageScale="1" pageWidth="1169" pageHeight="827" background="none" math="0" shadow="0">
      <root>
        <mxCell id="0" />
        <mxCell id="1" parent="0" />
        <mxCell id="SHrYjwZxxFRvRsRkmXIJ-18" value="" style="shape=folder;fontStyle=1;spacingTop=10;tabWidth=40;tabHeight=14;tabPosition=left;html=1;whiteSpace=wrap;align=center;movable=1;resizable=1;rotatable=1;deletable=1;editable=1;locked=0;connectable=1;" parent="1" vertex="1">
          <mxGeometry x="162.25" y="225" width="317.75" height="100" as="geometry" />
        </mxCell>
        <mxCell id="SHrYjwZxxFRvRsRkmXIJ-20" value="&lt;p style=&quot;margin: 4px 0px 0px;&quot;&gt;&lt;b style=&quot;background-color: initial;&quot;&gt;PlanoManutencaoController&lt;/b&gt;&lt;br&gt;&lt;/p&gt;" style="verticalAlign=top;align=center;overflow=fill;fontSize=12;fontFamily=Helvetica;html=1;whiteSpace=wrap;movable=1;resizable=1;rotatable=1;deletable=1;editable=1;locked=0;connectable=1;" parent="1" vertex="1">
          <mxGeometry x="196" y="265" width="174" height="45" as="geometry" />
        </mxCell>
        <mxCell id="SHrYjwZxxFRvRsRkmXIJ-21" value="br.com.locacar.api.plano_locatech.controller" style="text;html=1;strokeColor=none;fillColor=none;align=left;verticalAlign=middle;whiteSpace=wrap;rounded=0;" parent="1" vertex="1">
          <mxGeometry x="165.5" y="238" width="338.75" height="30" as="geometry" />
        </mxCell>
        <mxCell id="SHrYjwZxxFRvRsRkmXIJ-28" value="" style="shape=folder;fontStyle=1;spacingTop=10;tabWidth=40;tabHeight=14;tabPosition=left;html=1;whiteSpace=wrap;align=center;movable=1;resizable=1;rotatable=1;deletable=1;editable=1;locked=0;connectable=1;" parent="1" vertex="1">
          <mxGeometry x="160.75" y="93" width="319.25" height="100" as="geometry" />
        </mxCell>
        <mxCell id="SHrYjwZxxFRvRsRkmXIJ-29" value="&lt;p style=&quot;margin: 4px 0px 0px;&quot;&gt;&lt;b style=&quot;background-color: initial;&quot;&gt;ApiApplication&lt;/b&gt;&lt;br&gt;&lt;/p&gt;" style="verticalAlign=top;align=center;overflow=fill;fontSize=12;fontFamily=Helvetica;html=1;whiteSpace=wrap;movable=1;resizable=1;rotatable=1;deletable=1;editable=1;locked=0;connectable=1;" parent="1" vertex="1">
          <mxGeometry x="198.25" y="133" width="171.75" height="45" as="geometry" />
        </mxCell>
        <mxCell id="SHrYjwZxxFRvRsRkmXIJ-30" value="br.com.locacar.api.plano_locatech" style="text;html=1;strokeColor=none;fillColor=none;align=left;verticalAlign=middle;whiteSpace=wrap;rounded=0;" parent="1" vertex="1">
          <mxGeometry x="162.75" y="103" width="257.25" height="30" as="geometry" />
        </mxCell>
        <mxCell id="SHrYjwZxxFRvRsRkmXIJ-31" value="" style="shape=folder;fontStyle=1;spacingTop=10;tabWidth=40;tabHeight=14;tabPosition=left;html=1;whiteSpace=wrap;align=center;movable=1;resizable=1;rotatable=1;deletable=1;editable=1;locked=0;connectable=1;" parent="1" vertex="1">
          <mxGeometry x="162" y="350" width="318" height="100" as="geometry" />
        </mxCell>
        <mxCell id="SHrYjwZxxFRvRsRkmXIJ-32" value="&lt;p style=&quot;margin: 4px 0px 0px;&quot;&gt;&lt;b style=&quot;background-color: initial;&quot;&gt;PlanoManutencaoService&lt;/b&gt;&lt;br&gt;&lt;/p&gt;" style="verticalAlign=top;align=center;overflow=fill;fontSize=12;fontFamily=Helvetica;html=1;whiteSpace=wrap;movable=1;resizable=1;rotatable=1;deletable=1;editable=1;locked=0;connectable=1;" parent="1" vertex="1">
          <mxGeometry x="194.5" y="390" width="175.5" height="45" as="geometry" />
        </mxCell>
        <mxCell id="SHrYjwZxxFRvRsRkmXIJ-33" value="br.com.locacar.api.plano_locatech.service" style="text;html=1;strokeColor=none;fillColor=none;align=left;verticalAlign=middle;whiteSpace=wrap;rounded=0;" parent="1" vertex="1">
          <mxGeometry x="167" y="360" width="311" height="30" as="geometry" />
        </mxCell>
        <mxCell id="SHrYjwZxxFRvRsRkmXIJ-34" value="" style="shape=folder;fontStyle=1;spacingTop=10;tabWidth=40;tabHeight=14;tabPosition=left;html=1;whiteSpace=wrap;align=center;movable=1;resizable=1;rotatable=1;deletable=1;editable=1;locked=0;connectable=1;" parent="1" vertex="1">
          <mxGeometry x="162" y="470" width="318" height="100" as="geometry" />
        </mxCell>
        <mxCell id="SHrYjwZxxFRvRsRkmXIJ-35" value="&lt;p style=&quot;margin: 4px 0px 0px;&quot;&gt;&lt;b style=&quot;background-color: initial;&quot;&gt;PlanoManutencaoRepository&lt;/b&gt;&lt;br&gt;&lt;/p&gt;" style="verticalAlign=top;align=center;overflow=fill;fontSize=12;fontFamily=Helvetica;html=1;whiteSpace=wrap;movable=1;resizable=1;rotatable=1;deletable=1;editable=1;locked=0;connectable=1;" parent="1" vertex="1">
          <mxGeometry x="194.5" y="510" width="175.5" height="45" as="geometry" />
        </mxCell>
        <mxCell id="SHrYjwZxxFRvRsRkmXIJ-36" value="br.com.locacar.api.plano_locatech.repository" style="text;html=1;strokeColor=none;fillColor=none;align=left;verticalAlign=middle;whiteSpace=wrap;rounded=0;" parent="1" vertex="1">
          <mxGeometry x="164.75" y="480" width="319.25" height="30" as="geometry" />
        </mxCell>
        <mxCell id="SHrYjwZxxFRvRsRkmXIJ-37" value="" style="shape=folder;fontStyle=1;spacingTop=10;tabWidth=40;tabHeight=14;tabPosition=left;html=1;whiteSpace=wrap;align=center;movable=1;resizable=1;rotatable=1;deletable=1;editable=1;locked=0;connectable=1;" parent="1" vertex="1">
          <mxGeometry x="162" y="590" width="278" height="100" as="geometry" />
        </mxCell>
        <mxCell id="SHrYjwZxxFRvRsRkmXIJ-38" value="&lt;p style=&quot;margin: 4px 0px 0px;&quot;&gt;&lt;b style=&quot;background-color: initial;&quot;&gt;PlanoManutencaoDTO&lt;/b&gt;&lt;br&gt;&lt;/p&gt;" style="verticalAlign=top;align=center;overflow=fill;fontSize=12;fontFamily=Helvetica;html=1;whiteSpace=wrap;movable=1;resizable=1;rotatable=1;deletable=1;editable=1;locked=0;connectable=1;" parent="1" vertex="1">
          <mxGeometry x="188.25" y="629" width="140" height="48" as="geometry" />
        </mxCell>
        <mxCell id="SHrYjwZxxFRvRsRkmXIJ-39" value="br.com.locacar.api.plano_locatech.dto" style="text;html=1;strokeColor=none;fillColor=none;align=left;verticalAlign=middle;whiteSpace=wrap;rounded=0;" parent="1" vertex="1">
          <mxGeometry x="166" y="599" width="276" height="30" as="geometry" />
        </mxCell>
        <mxCell id="SHrYjwZxxFRvRsRkmXIJ-40" value="" style="shape=folder;fontStyle=1;spacingTop=10;tabWidth=40;tabHeight=14;tabPosition=left;html=1;whiteSpace=wrap;align=center;movable=1;resizable=1;rotatable=1;deletable=1;editable=1;locked=0;connectable=1;" parent="1" vertex="1">
          <mxGeometry x="163.25" y="852" width="256.75" height="100" as="geometry" />
        </mxCell>
        <mxCell id="SHrYjwZxxFRvRsRkmXIJ-42" value="&lt;b&gt;spring&lt;br&gt;&lt;ul&gt;&lt;li style=&quot;text-align: left;&quot;&gt;Data persistence infra&lt;/li&gt;&lt;li style=&quot;text-align: left;&quot;&gt;ORMs e/ou acesso API Dados&lt;/li&gt;&lt;/ul&gt;&lt;/b&gt;" style="text;html=1;strokeColor=none;fillColor=none;align=center;verticalAlign=middle;whiteSpace=wrap;rounded=0;" parent="1" vertex="1">
          <mxGeometry x="153.25" y="892" width="220" height="30" as="geometry" />
        </mxCell>
        <mxCell id="SHrYjwZxxFRvRsRkmXIJ-45" value="" style="shape=folder;fontStyle=1;spacingTop=10;tabWidth=40;tabHeight=14;tabPosition=left;html=1;whiteSpace=wrap;align=center;movable=1;resizable=1;rotatable=1;deletable=1;editable=1;locked=0;connectable=1;" parent="1" vertex="1">
          <mxGeometry x="162" y="714" width="488" height="96" as="geometry" />
        </mxCell>
        <mxCell id="SHrYjwZxxFRvRsRkmXIJ-46" value="&lt;p style=&quot;margin: 4px 0px 0px;&quot;&gt;&lt;b style=&quot;background-color: initial;&quot;&gt;PlanoManutencao&lt;/b&gt;&lt;br&gt;&lt;/p&gt;" style="verticalAlign=top;align=center;overflow=fill;fontSize=12;fontFamily=Helvetica;html=1;whiteSpace=wrap;movable=1;resizable=1;rotatable=1;deletable=1;editable=1;locked=0;connectable=1;" parent="1" vertex="1">
          <mxGeometry x="189.5" y="748.5" width="140" height="45" as="geometry" />
        </mxCell>
        <mxCell id="SHrYjwZxxFRvRsRkmXIJ-47" value="br.com.locacar.api.plano_locatech.entities" style="text;html=1;strokeColor=none;fillColor=none;align=left;verticalAlign=middle;whiteSpace=wrap;rounded=0;" parent="1" vertex="1">
          <mxGeometry x="166" y="723" width="294" height="30" as="geometry" />
        </mxCell>
        <mxCell id="SHrYjwZxxFRvRsRkmXIJ-52" value="&lt;p style=&quot;margin: 4px 0px 0px;&quot;&gt;&lt;b style=&quot;background-color: initial;&quot;&gt;Veiculo&lt;/b&gt;&lt;br&gt;&lt;/p&gt;" style="verticalAlign=top;align=center;overflow=fill;fontSize=12;fontFamily=Helvetica;html=1;whiteSpace=wrap;movable=1;resizable=1;rotatable=1;deletable=1;editable=1;locked=0;connectable=1;" parent="1" vertex="1">
          <mxGeometry x="343.5" y="748.5" width="140" height="45" as="geometry" />
        </mxCell>
        <mxCell id="mgbPzSR5ZNTpy0_arQ9--2" value="" style="endArrow=none;dashed=1;html=1;rounded=0;spacing=5;strokeWidth=3;" parent="1" edge="1">
          <mxGeometry width="50" height="50" relative="1" as="geometry">
            <mxPoint x="45" y="210" as="sourcePoint" />
            <mxPoint x="680" y="210" as="targetPoint" />
          </mxGeometry>
        </mxCell>
        <mxCell id="mgbPzSR5ZNTpy0_arQ9--3" value="" style="endArrow=none;dashed=1;html=1;rounded=0;spacing=5;strokeWidth=3;" parent="1" edge="1">
          <mxGeometry width="50" height="50" relative="1" as="geometry">
            <mxPoint x="42.5" y="80" as="sourcePoint" />
            <mxPoint x="680" y="80" as="targetPoint" />
          </mxGeometry>
        </mxCell>
        <mxCell id="mgbPzSR5ZNTpy0_arQ9--5" value="" style="endArrow=none;dashed=1;html=1;rounded=0;spacing=5;strokeWidth=3;" parent="1" edge="1">
          <mxGeometry width="50" height="50" relative="1" as="geometry">
            <mxPoint x="45" y="842" as="sourcePoint" />
            <mxPoint x="680" y="842" as="targetPoint" />
          </mxGeometry>
        </mxCell>
        <mxCell id="mgbPzSR5ZNTpy0_arQ9--6" value="&lt;b&gt;&lt;font style=&quot;font-size: 13px;&quot;&gt;Aplicação&lt;/font&gt;&lt;/b&gt;" style="text;html=1;strokeColor=none;fillColor=none;align=left;verticalAlign=middle;whiteSpace=wrap;rounded=0;" parent="1" vertex="1">
          <mxGeometry x="45" y="140" width="90" height="30" as="geometry" />
        </mxCell>
        <mxCell id="mgbPzSR5ZNTpy0_arQ9--7" value="&lt;b&gt;&lt;font style=&quot;font-size: 13px;&quot;&gt;Domínio&lt;/font&gt;&lt;/b&gt;" style="text;html=1;strokeColor=none;fillColor=none;align=left;verticalAlign=middle;whiteSpace=wrap;rounded=0;" parent="1" vertex="1">
          <mxGeometry x="45" y="295" width="90" height="30" as="geometry" />
        </mxCell>
        <mxCell id="mgbPzSR5ZNTpy0_arQ9--8" value="&lt;span style=&quot;font-size: 13px;&quot;&gt;&lt;b&gt;Infraestrutura&lt;/b&gt;&lt;/span&gt;" style="text;html=1;strokeColor=none;fillColor=none;align=left;verticalAlign=middle;whiteSpace=wrap;rounded=0;" parent="1" vertex="1">
          <mxGeometry x="42.5" y="862" width="100" height="30" as="geometry" />
        </mxCell>
        <mxCell id="mgbPzSR5ZNTpy0_arQ9--9" value="&lt;b&gt;&lt;font style=&quot;font-size: 13px;&quot;&gt;Interface do Usuário&lt;/font&gt;&lt;/b&gt;" style="text;html=1;strokeColor=none;fillColor=none;align=left;verticalAlign=middle;whiteSpace=wrap;rounded=0;" parent="1" vertex="1">
          <mxGeometry x="42.5" y="40" width="131" height="30" as="geometry" />
        </mxCell>
        <mxCell id="vFnGD5-m_LnVGo-z7X76-6" value="&lt;p style=&quot;margin: 4px 0px 0px;&quot;&gt;&lt;b style=&quot;background-color: initial;&quot;&gt;Inspetor&lt;/b&gt;&lt;br&gt;&lt;/p&gt;" style="verticalAlign=top;align=center;overflow=fill;fontSize=12;fontFamily=Helvetica;html=1;whiteSpace=wrap;movable=1;resizable=1;rotatable=1;deletable=1;editable=1;locked=0;connectable=1;" parent="1" vertex="1">
          <mxGeometry x="494.5" y="748.5" width="140" height="45" as="geometry" />
        </mxCell>
      </root>
    </mxGraphModel>
  </diagram>
</mxfile>
